<svg width="300" height="200" xmlns="http://www.w3.org/2000/svg" version="1.1" enable-background="new 0 0 2272 1872" xml:space="preserve">
 <g>
  <title>Layer 1</title>
  <g stroke="null" id="svg_4">
   <path stroke="null" fill="#e0677d" d="m285.89787,182.42917c0,0 -39.2221,-57.42896 -97.30098,-106.4362c66.09301,-23.92127 109.4636,-29.11765 109.4636,-29.11765l-17.63109,-25.08598c0,0 -45.35055,-6.27149 -127.47183,27.2362c-65.71588,-44.88598 -107.38936,-48.82806 -107.38936,-48.82806l-23.38241,20.42715c0,0 36.67644,13.43891 90.13541,47.57375c-63.64163,33.68688 -111.16071,75.88507 -111.16071,75.88507l27.5309,22.48779c0,0 44.31343,-41.48145 119.08056,-74.27239c70.2415,50.88869 105.69225,105.89864 105.69225,105.89864l32.43366,-15.76833z" id="svg_50"/>
  </g>
 </g>

</svg>