<?xml version="1.0" encoding="utf-8"?>

<svg version="1.1" id="Icons" xmlns="http://www.w3.org/2000/svg" xmlns:xlink="http://www.w3.org/1999/xlink" x="0px" y="0px"
	 viewBox="0 0 32 32" style="enable-background:new 0 0 32 32;" xml:space="preserve">
<style type="text/css">
	.st0{fill:none;stroke:#fb8609;stroke-width:2;stroke-linecap:round;stroke-linejoin:round;stroke-miterlimit:10;}
</style>
<line class="st0" x1="3.9" y1="9" x2="7.3" y2="11"/>
<line class="st0" x1="2" y1="16" x2="6" y2="16"/>
<line class="st0" x1="3.9" y1="23" x2="7.3" y2="21"/>
<line class="st0" x1="28.1" y1="23" x2="24.7" y2="21"/>
<line class="st0" x1="30" y1="16" x2="26" y2="16"/>
<line class="st0" x1="28.1" y1="9" x2="24.7" y2="11"/>
<path class="st0" d="M22,14c0-3.6-3.1-6.4-6.7-6c-2.6,0.3-4.8,2.4-5.2,5c-0.3,2,0.4,3.8,1.6,5.1c0.9,0.9,1.3,2.2,1.3,3.5V22h6v-0.5
	c0-1.3,0.6-2.5,1.4-3.4C21.4,17,22,15.6,22,14z"/>
<path class="st0" d="M18,25c0,1.1-0.9,2-2,2s-2-0.9-2-2"/>
<path class="st0" d="M16,21.6l-3-8.3l0,0c1.8,1.3,4.2,1.3,6,0l0,0"/>
</svg>
