<svg width="0" height="0" class="hidden">
  <symbol xmlns="http://www.w3.org/2000/svg" xml:space="preserve" enable-background="new 0 0 2272 1872" version="1.1" viewBox="0 0 345 700" id="ind0">
    <g>
      <g id="svg_8">
        <path id="svg_9" d="m28.72018,553.1c0.1,1.4 0.4,2.8 1.1,4.1l49.4,94.7c1.1,2.2 3,3.8 5.2,4.6l0.3,3.3c0.4,4 3.2,7.4 7.1,8.5l101.1,27.9c0.9,0.2 1.7,0.4 2.6,0.4c1.8,0 3.5,-0.5 5.1,-1.4c2.3,-1.4 3.9,-3.7 4.5,-6.3l0.4,-1.8c2.2,-0.6 4.2,-1.9 5.6,-3.9l109.7,-157.6c1.4,-2 1.9,-4.4 1.7,-6.7l2.9,-1.9c2.7,-1.7 4.4,-4.7 4.5,-7.9l13.2,-438.5c0.1,-2.6 -0.9,-5 -2.6,-6.9c-0.5,-2.7 -2.1,-5.2 -4.5,-6.7l-55.2,-33.8c-1.2,-0.7 -2.5,-1.2 -3.9,-1.4l-172.1,-21.7c-0.4,-0.1 -0.8,-0.1 -1.2,-0.1c-2.1,0 -4.1,0.7 -5.8,1.9l-90.8,66.7c-1.8,1.3 -3.1,3.2 -3.7,5.4c-2.2,2 -3.5,4.9 -3.3,7.9l26.4,465.5c0.1,2.1 1,4.1 2.3,5.7z" fill="#AF2137"></path>
        <path id="svg_10" d="m81.32018,553.5l56.2,-51.4c0.5,-0.5 1.2,-0.7 1.8,-0.7c0,0 0,0 0,0c0.6,0 1.3,0.2 1.8,0.7l77.9,66.5l-14.3,-424.6l-101.7,-32.7l-93.2,-29.9l26.4,465.5l45.1,6.6z" fill="#F69EB0"></path>
        <polygon id="svg_11" points="219.0201873779297,575.699951171875 139.4202117919922,507.800048828125 85.02017974853516,557.5 92.02017974853516,632.9000244140625 94.52017974853516,658.800048828125 195.6201629638672,686.699951171875 215.4202117919922,592.4000244140625 " fill="#F69EB0"></polygon>
        <polygon id="svg_12" points="79.72013092041016,558.800048828125 40.820228576660156,553 38.520179748535156,552.5999755859375 87.92020416259766,647.4000244140625 87.72013092041016,645.300048828125 " fill="#F69EB0"></polygon>
        <polygon id="svg_13" points="224.6201629638672,569.800048828125 320.2201232910156,508.699951171875 333.4201965332031,70.20000457763672 210.2201385498047,143.39999389648438 " fill="#e0677d"></polygon>
        <polygon id="svg_14" points="331.0201721191406,65.29999542236328 275.8202209472656,31.49999237060547 103.62015533447266,9.799996376037598 12.820230484008789,76.49999237060547 207.1201629638672,138.89999389648438 " fill="#F69EB0"></polygon>
        <polygon id="svg_15" points="203.1201629638672,677.5 312.8202209472656,519.9000244140625 224.4202117919922,576.4000244140625 " fill="#e0677d"></polygon>
        <g id="svg_16">
          <path id="svg_17" d="m252.32018,28.5l-54.1,-6.8c-17.8,10.7 -35.7,21.2 -53.4,32.1c-22.9,14.1 -45.6,28.7 -68.3,43.1l27.2,8.7c18.2,-9.5 36.5,-19.1 54.9,-28.4c21.4,-10.8 42.6,-21.8 63.8,-33c9.7,-5 20.3,-9.7 29.9,-15.7z" fill="#FFFFFF"></path>
          <path id="svg_18" d="m19.92018,78.8l21.4,6.9c23,-12.3 46.3,-24.1 69.2,-36.7c18.5,-10.1 36.6,-20.9 54.9,-31.4l-41.7,-5.2c-8.4,5.4 -16.8,10.8 -25.3,16.1c-26.3,16.4 -52.7,32.8 -78.5,50.3z" fill="#FFFFFF"></path>
        </g>
      </g>
    </g>
  </symbol>
  <symbol xmlns="http://www.w3.org/2000/svg" xml:space="preserve" enable-background="new 0 0 2272 1872" version="1.1" viewBox="0 0 590 750" id="ind1">
    <g>
      <g id="svg_120">
        <path id="svg_121" d="m554.69151,518.3c-1.3,-3.2 -4.1,-5.5 -7.4,-6.1c-1.8,-1.7 -4.2,-2.6 -6.6,-2.6c-1,0 -1.9,0.1 -2.9,0.4l-41.4,12.7l53.3,-148.8c0.6,-1.6 0.7,-3.2 0.4,-4.8c1.9,-2.3 2.7,-5.4 2.1,-8.4l-63.3,-287c-0.5,-2.3 -1.8,-4.3 -3.6,-5.7l0.5,-2.7c0.7,-3.6 -0.7,-7.3 -3.5,-9.5l-68.2,-53.7c-1.7,-1.4 -3.9,-2.1 -6,-2.1c-1.1,0 -2.2,0.2 -3.2,0.5c-1.8,0.6 -3.3,1.7 -4.4,3.2c-2.1,0.3 -4.1,1.2 -5.6,2.7l-138.9,134.4c-2.6,2.6 -3.6,6.3 -2.6,9.8c-1.2,1.4 -2,3 -2.3,4.9l-39,258.5l-129.6,38c-2.1,0.6 -4,1.9 -5.2,3.7l-72.1,102c-1.1,1.5 -1.6,3.3 -1.7,5.1c-1.1,0.9 -2,2.1 -2.6,3.4c-1.1,2.4 -1.2,5.2 -0.2,7.7l54,136.1c1.3,3.3 4.3,5.6 7.7,6.1l122.6,17c0.4,0.1 0.9,0.1 1.3,0.1c1.3,0 2.5,-0.2 3.7,-0.7l26.1,-10.8l23,20.8c1.7,1.5 3.9,2.4 6.1,2.5c1.6,1.1 3.6,1.8 5.6,1.8c0.1,0 0.3,0 0.4,0l74.9,-3.4c2.5,-0.1 4.9,-1.2 6.6,-3l15.4,-16.2c0.5,-0.6 1,-1.2 1.4,-1.8c0.9,-0.2 1.7,-0.5 2.5,-1l44,-25.4l-6,15.4c-1.1,2.8 -0.8,6 0.7,8.6c1.6,2.6 4.2,4.3 7.2,4.7l70,8.4c0.4,0 0.8,0.1 1.2,0.1c1.6,0 3.2,-0.4 4.6,-1.2c0.5,0.1 1,0.1 1.6,0.1c0.8,0 1.7,-0.1 2.5,-0.3l38,-10.2c1.8,-0.5 3.4,-1.5 4.6,-2.8c2.2,-0.6 4.2,-1.9 5.6,-3.7l28,-38.7c2.2,-3.1 2.5,-7.1 0.7,-10.4l-5.8,-10.6c0.4,-0.6 0.8,-1.3 1.1,-2l27.4,-69.2c0.9,-2.3 0.9,-4.9 0,-7.2l-22.7,-58.7z" fill="#63387C"></path>
        <polygon id="svg_122" points="316.1914367675781,488.3999634385109 354.1914367675781,287.7000122666359 294.0915832519531,228.10005193948746 245.09156799316406,412.3999634385109 292.6914367675781,559.7000122666359 " fill="#C5A3CD"></polygon>
        <polygon id="svg_123" points="188.49147033691406,675.2999878525734 237.69142150878906,666.1000366806984 276.4914855957031,658.7999878525734 320.1914367675781,616.7000122666359 277.7915344238281,616.7000122666359 247.89149475097656,616.7000122666359 " fill="#C5A3CD"></polygon>
        <polygon id="svg_124" points="241.49147033691406,418.9999390244484 213.39149475097656,465.4999390244484 221.69142150878906,483.7999878525734 277.3915100097656,606.3999634385109 289.7915344238281,568.4999390244484 " fill="#966AAD"></polygon>
        <polygon id="svg_125" points="438.6914367675781,440.7000122666359 434.6914367675781,280.6000366806984 422.3916320800781,281.9999390244484 359.3916320800781,289.2000122666359 322.3916320800781,484.7999878525734 434.8916320800781,442.1000366806984 " fill="#C5A3CD"></polygon>
        <polygon id="svg_126" points="379.6914367675781,281.3999634385109 432.2915344238281,275.3999634385109 364.5915832519531,183.60005193948746 297.1914367675781,223.39997869729996 358.0915832519531,283.8999634385109 " fill="#C5A3CD"></polygon>
        <polygon id="svg_127" points="496.4914855957031,612.2000122666359 509.69140625,584.4999390244484 540.69140625,519.4999390244484 487.9914855957031,535.6000366806984 " fill="#C5A3CD"></polygon>
        <polygon id="svg_128" points="475.8916320800781,481.2999878525734 443.3916320800781,448.4999390244484 427.3916320800781,572.8999634385109 " fill="#966AAD"></polygon>
        <polygon id="svg_129" points="186.19142150878906,681.2999878525734 245.69142150878906,735.1000366806984 273.3915100097656,664.9999390244484 " fill="#C5A3CD"></polygon>
        <polygon id="svg_130" points="208.29151916503906,463.3999634385109 236.29151916503906,417.1000366806984 85.2915267944336,461.2999878525734 13.191429138183594,563.2999878525734 113.3915023803711,529.3999634385109 " fill="#C5A3CD"></polygon>
        <polygon id="svg_131" points="289.7915344238281,222.99995428323746 260.8915100097656,156.89997869729996 221.79151916503906,415.6000366806984 239.99159240722656,410.2999878525734 " fill="#C5A3CD"></polygon>
        <polygon id="svg_132" points="362.8916320800781,178.20002752542496 401.5915832519531,13.399974882602692 262.7915344238281,147.80000311136246 293.9916076660156,218.89997869729996 " fill="#C5A3CD"></polygon>
        <polygon id="svg_133" points="435.8916320800781,270.8999634385109 476.2915344238281,63.49995428323746 407.9914855957031,9.700024664402008 368.2915344238281,179.39997869729996 " fill="#C5A3CD"></polygon>
        <polygon id="svg_134" points="456.4914855957031,453.8999634385109 476.9914855957031,474.6000366806984 482.2915344238281,402.7999878525734 440.4914855957031,293.3999634385109 444.1914367675781,441.3999634385109 " fill="#966AAD"></polygon>
        <path id="svg_135" d="m177.99151,681c0,-0.1 -0.1,-0.1 -0.1,-0.2c0,0 0,0 0,-0.1c-0.1,-0.1 -0.1,-0.2 -0.1,-0.3c0,-0.1 -0.1,-0.2 -0.1,-0.4c0,-0.2 -0.1,-0.3 -0.1,-0.5c0,-0.1 0,-0.2 0.1,-0.3c0,-0.1 0,-0.2 0,-0.3c0,-0.1 0,-0.1 0,-0.2c0,0 0.1,-0.1 0.1,-0.1c0.1,-0.4 0.3,-0.8 0.6,-1.1l66.6,-65.6c0.5,-0.5 1.2,-0.8 1.9,-0.8l26.8,0l-64.4,-141.8l-93,64.7c-0.2,0.1 -0.4,0.3 -0.7,0.3l-105.8,35.7l54,136.1l122.6,17l26.2,-10.8l-34.1,-30.8c-0.3,-0.1 -0.4,-0.3 -0.5,-0.5z" fill="#C5A3CD"></path>
        <path id="svg_136" d="m420.89151,580.4l4.4,-34.3l12.8,-99.3l-114.1,43.3c53.1,46.8 85.5,77.1 96.9,90.3z" fill="#C5A3CD"></path>
        <path id="svg_137" d="m420.19151,645.8c0,-0.1 0.1,-0.2 0.2,-0.3c0.1,-0.1 0.1,-0.2 0.2,-0.3c0.2,-0.2 0.3,-0.4 0.5,-0.6c0.1,-0.1 0.3,-0.2 0.4,-0.2c0.1,-0.1 0.2,-0.2 0.3,-0.2l70,-24l-8.8,-79.8l-5.5,-50.4l-52.1,98.4l-9.5,68.5l4.3,-11.1z" fill="#966AAD"></path>
        <polygon id="svg_138" points="504.9914855957031,621.4999390244484 495.6914367675781,624.7000122666359 495.6914367675781,624.7000122666359 435.7915344238281,645.2000122666359 471.9914855957031,648.4999390244484 " fill="#C5A3CD"></polygon>
        <polygon id="svg_139" points="481.9914855957031,480.7999878525734 486.4914855957031,521.6000366806984 540.591552734375,370.7000122666359 487.6914367675781,403.9999390244484 " fill="#966AAD"></polygon>
        <polygon id="svg_140" points="486.3916320800781,398.2999878525734 542.79150390625,362.8999634385109 499.2915344238281,165.60005193948746 479.3916320800781,75.80000311136246 440.1914367675781,277.2999878525734 " fill="#966AAD"></polygon>
        <polygon id="svg_141" points="257.3915100097656,720.4999390244484 250.89151000976562,736.7999878525734 325.7914123535156,733.3999634385109 341.2915344238281,717.2000122666359 278.9916076660156,665.8999634385109 " fill="#966AAD"></polygon>
        <polygon id="svg_142" points="311.5915832519531,632.7000122666359 281.8915100097656,661.2000122666359 341.2915344238281,710.1000366806984 325.1914367675781,619.4999390244484 " fill="#966AAD"></polygon>
        <polygon id="svg_143" points="488.5915832519531,684.7999878525734 475.3916320800781,722.1000366806984 513.3916015625,711.8999634385109 495.3916320800781,692.2999878525734 " fill="#966AAD"></polygon>
        <path id="svg_144" d="m538.99151,657.1l-21.4,-39l-41.3,33.9l13.4,26l17.1,18.6l11.4,12.4l28,-38.7l-7.2,-13.2c0.1,0.1 0.1,0 0,0z" fill="#966AAD"></path>
        <path id="svg_145" d="m419.49151,588.2l-99.4,-94.2l-20.9,63.8l-3.8,11.6l-13.7,41.8l45.5,0c0.1,0 0.2,0.1 0.4,0.1c0.2,0 0.3,0 0.5,0c0.1,0 0.2,0.2 0.3,0.2c0.2,0.1 0.3,0.1 0.4,0.2c0.1,0.1 0.1,0.1 0.2,0.2c0.2,0.2 0.3,0.4 0.4,0.6c0.1,0.1 0.2,0.2 0.3,0.3c0,0.1 0,0.2 0,0.3c0,0.1 0.1,0.2 0.1,0.3l17.6,99.2l60.1,-34.7c5.8,-64.3 9.7,-83.6 12,-89.7z" fill="#C5A3CD"></path>
        <polygon id="svg_146" points="471.1914367675781,653.8999634385109 461.7915344238281,653.1000366806984 424.5915832519531,649.7000122666359 416.8916320800781,669.3999634385109 412.4914855957031,680.6000366806984 412.4914855957031,680.6000366806984 399.1914367675781,714.7000122666359 469.1914367675781,723.1000366806984 474.6914367675781,707.6000366806984 484.4914855957031,679.7999878525734 " fill="#C5A3CD"></polygon>
        <path id="svg_147" d="m500.09151,617.4l17.5,-6c0.1,0 0.1,0 0.2,0c0.5,-0.2 1.1,-0.2 1.6,0c0.1,0 0.1,0.1 0.2,0.1c0.5,0.2 1,0.6 1.3,1.1c0,0 0,0 0,0c0,0 0,0 0,0c0,0 0,0 0,0l20.2,36.7l27.4,-69.2l-22.8,-58.3l-45.6,95.6z" fill="#966AAD"></path>
        <g id="svg_148">
          <path id="svg_149" d="m181.59151,433.1c-2,2.7 -4,5.3 -6.1,8c-21.5,28.6 -42.5,57.3 -61.2,87.7l30.4,-21.2c14.8,-19.7 30.1,-39 45.3,-58.3c6.4,-8.2 12.9,-16.3 19.4,-24.4l-27.8,8.2z" fill="#FFFFFF"></path>
          <path id="svg_150" d="m156.99151,440.3l-37.2,10.9c-23,33 -46.8,65.3 -68.5,99.2l26.1,-8.8c19.7,-25.5 40.2,-50.6 60.1,-76c6.5,-8.4 13,-16.8 19.5,-25.3z" fill="#FFFFFF"></path>
        </g>
        <g id="svg_151">
          <path id="svg_152" d="m274.39151,174.1c31.5,-29.1 63,-58.2 94.3,-87.5c6.7,-6.3 13.4,-12.6 20.1,-18.9l9.3,-39.7c-13.9,13.2 -27.6,26.7 -41.3,40.1c-30.5,29.7 -59.8,60.4 -88.9,91.4l6.5,14.6z" fill="#FFFFFF"></path>
          <path id="svg_153" d="m358.59151,135.2c5.9,-4.6 11.7,-9.1 17.6,-13.7l5.2,-22.1c-10.2,8.2 -20.3,16.5 -30.5,24.7c-24.4,19.7 -48,40.3 -71.9,60.5l4.1,9.3c25.3,-19.3 50.3,-39.1 75.5,-58.7z" fill="#FFFFFF"></path>
        </g>
      </g>
    </g>
  </symbol>
  <symbol xmlns="http://www.w3.org/2000/svg" xml:space="preserve" enable-background="new 0 0 2272 1872" version="1.1" viewBox="0 0 780 750" id="ind2">
    <g>
      <g stroke="null" id="svg_73">
        <path stroke="null" id="svg_74" d="m778.36786,450.09282l-19.5,-120.21185c-0.2,-1.08397 -0.5,-2.05954 -1,-3.03511c0.1,-0.32519 0.2,-0.75878 0.2,-1.08397l3.4,-26.55717c0.3,-2.60152 -0.2,-5.20304 -1.5,-7.37097l-37.8,-61.46088c-1.6,-2.60152 -4.1,-4.22747 -6.9,-4.66105c-0.4,-0.1084 -0.8,-0.1084 -1.2,-0.1084c-2.4,0 -4.7,0.97557 -6.5,2.70992l-12.9,12.46561c-1.2,-0.54198 -2.4,-0.75878 -3.7,-0.75878c-1.7,0 -3.5,0.54198 -5,1.51755l-160,103.95236l-6.4,-140.69882c-0.1,-1.84274 -0.6,-3.46869 -1.4,-4.98624c0.5,-3.1435 -0.4,-6.3954 -2.5,-8.88852l-153.6,-179.7216c-1.3,-1.51755 -3,-2.60152 -4.9,-3.03511c-0.8,-1.62595 -2,-2.92671 -3.4,-3.90228c-1.6,-1.08397 -3.3,-1.62595 -5.1,-1.62595c-1,0 -2.1,0.21679 -3.1,0.54198l-67.1,23.95565c-4,1.40916 -6.7,5.52823 -6.7,10.08089l0,3.90228c-2.1,1.08397 -3.9,3.03511 -4.8,5.63662l-48.8,133.86983c-1,2.81831 -0.9,5.85342 0.3,8.45494c-0.6,1.51755 -0.9,3.2519 -0.7,4.98624l18.2,212.02379l-81.5,-157.1751c-1.2,-2.27633 -3,-3.79388 -5,-4.66105l-0.2,-2.81831c-0.3,-3.57709 -2.2,-6.72059 -5.1,-8.34654l-54.4,-31.32662c-1.4,-0.86717 -3,-1.19236 -4.6,-1.19236c-1.1,0 -2.2,0.21679 -3.2,0.54198c-2.6,0.97557 -4.7,3.03511 -5.7,5.74502l-74.7,186.65898c-0.7,1.84274 -0.9,3.79388 -0.7,5.74502c-0.9,2.05954 -1.1,4.44426 -0.6,6.72059l38.7,188.06814l-32,56.14945c-2.4,4.22747 -1.8,9.7557 1.5,13.11599l38.7,40.75713c1.7,1.73435 3.9,2.81831 6.2,2.92671l103.5,6.72059c0.2,0 0.4,0 0.6,0c0.7,0 1.5,-0.1084 2.2,-0.32519c0.9,0.32519 1.8,0.54198 2.7,0.65038l9.3,0.65038c-1.2,2.70992 -1.2,5.85342 -0.1,8.56333c1.1,2.81831 3.2,4.87785 5.9,5.85342l56.4,20.37856c1,0.32519 2,0.54198 3.1,0.54198c1,0 1.9,-0.1084 2.9,-0.43359l53.5,-17.77705c0.4,-0.1084 0.7,-0.21679 1,-0.43359c0.4,0.1084 0.7,0.1084 1.1,0.1084l156.9,7.69616c0.1,0 0.3,0 0.4,0c1.2,0 2.4,-0.21679 3.5,-0.75878c1.1,0.54198 2.4,0.75878 3.7,0.75878l50.4,0c2.4,0 4.7,-0.97557 6.5,-2.70992l12.2,-11.81523l11.7,9.6473c1.4,1.08397 2.9,1.73435 4.6,2.05954c1.8,1.84274 4.2,2.92671 6.7,2.92671l71.2,0c1.4,0 2.8,-0.32519 4,-0.97557c0.6,0.1084 1.2,0.21679 1.9,0.21679c0.6,0 1.1,0 1.7,-0.1084l41.8,-8.02135c0.9,-0.21679 1.8,-0.54198 2.7,-0.97557l50.9,-27.53274c1.6,-0.86717 2.9,-2.16793 3.8,-3.79388c1.2,-0.43359 2.4,-1.08397 3.4,-2.05954l33.9,-32.1938c2,-1.95114 3.2,-4.66105 3.3,-7.47937c0.1,-2.92671 -0.9,-5.74502 -2.7,-7.80456l-7.6,-8.67173c1,-2.81831 0.8,-6.17861 -0.7,-8.88852l-25.9,-48.77848c-0.4,-0.75878 -0.9,-1.40916 -1.4,-1.95114c0.1,-0.21679 0.2,-0.43359 0.3,-0.65038l44.6,-117.93553c0.7,-1.84274 0.9,-3.79388 0.6,-5.74502c0.5,-1.73435 0.8,-3.79388 0.5,-5.85342z" fill="#017347"></path>
        <polygon stroke="null" id="svg_75" points="715.06787109375,600.3306966778546 721.367919921875,581.5777810191939 651.767822265625,516.5397826965636 609.9678955078125,560.9823844732673 559.56787109375,627.5380803224034 649.267822265625,634.0418931877066 " fill="#79bc90"></polygon>
        <polygon stroke="null" id="svg_76" points="247.16781616210938,671.5469425226183 280.7677917480469,664.7182159661534 246.56784057617188,624.2862064723522 210.26779174804688,655.5044430606067 " fill="#79bc90"></polygon>
        <path stroke="null" id="svg_77" d="m202.46786,655.07084c0,-0.1084 0,-0.1084 0,0c0.2,-0.43359 0.4,-0.75878 0.8,-1.08397l41.7,-35.87928l30.7,-37.93882l-23.8,-66.01354l-28.6,-32.41059l-64.7,-73.38451l4.3,295.2724l17.8,1.19236l21.8,-49.75405z" fill="#1f9465"></path>
        <path stroke="null" id="svg_78" d="m274.66786,502.77358l-31.1,-60.05173c0,0 0,-0.1084 0,-0.1084l-97.6,-188.39333l12.4,145.25147l96.6,109.58899l19.7,-6.287z" fill="#1f9465"></path>
        <path stroke="null" id="svg_79" d="m283.76786,670.13797l-36.4,7.37097c-0.2,0 -0.3,0 -0.5,0c-0.3,0 -0.7,-0.1084 -1,-0.21679l-39.5,-17.23506l-25.8,59.18456l56.4,20.37856l53.5,-17.77705l-4,-31.76021l-2.7,-19.94498z" fill="#79bc90"></path>
        <path stroke="null" id="svg_80" d="m9.56786,403.80747l39.4,191.10325c0.2,0.75878 0,1.51755 -0.3,2.16793l-33.5,58.75097l38.7,40.75713l103.5,6.72059l-4.4,-299.49987l-143.4,0z" fill="#79bc90"></path>
        <path stroke="null" id="svg_81" d="m462.66786,628.83885l-28.9,-3.68549l-96.3,14.74194c-0.1,0 -0.3,0 -0.4,0c-0.1,0 -0.1,-0.1084 -0.2,-0.1084c-0.6,0 -1.2,-0.21679 -1.6,-0.65038l-56.3,-54.30671l-7.1,8.78013l-21.4,26.44878l37.6,44.44262c0,0.1084 0.1,0.1084 0.1,0.21679c0.2,0.32519 0.4,0.65038 0.5,0.97557c0,0.1084 0.1,0.21679 0.1,0.32519c0,0 0,0.1084 0,0.1084l7,54.84869l156.9,7.69616l28.2,-35.2289l-18.2,-64.60439z" fill="#79bc90"></path>
        <path stroke="null" id="svg_82" d="m281.16786,503.09877c0,0.1084 0.1,0.1084 0.1,0.21679c0,0.1084 0,0.1084 0.1,0.21679l0,0c0,0.1084 0.1,0.21679 0.1,0.32519l7.5,31.43502l-16.4,-293.21286l-45,-48.77848l21.2,247.1443l32.4,62.65325z" fill="#79bc90"></path>
        <polygon stroke="null" id="svg_83" points="473.9678649902344,238.39417866704025 508.4678955078125,198.28744127300524 354.7677917480469,18.56592288920001 394.7677917480469,306.3589416529576 " fill="#79bc90"></polygon>
        <polygon stroke="null" id="svg_84" points="139.46786499023438,242.62167332078752 84.96786499023438,211.29503442101122 10.367891311645508,397.8456051872854 152.66781616210938,397.8456051872854 " fill="#79bc90"></polygon>
        <polygon stroke="null" id="svg_85" points="348.5678405761719,13.362831868706962 281.4678649902344,37.31845570230598 281.4678649902344,196.2278951018925 277.9678649902344,239.04452737097017 389.1678161621094,306.3589416529576 " fill="#79bc90"></polygon>
        <polygon stroke="null" id="svg_86" points="276.0678405761719,196.01115564404972 276.0678405761719,50.75966624204921 227.26779174804688,184.62948312976914 272.9678649902344,234.16668401329298 " fill="#79bc90"></polygon>
        <polygon stroke="null" id="svg_87" points="484.6678161621094,697.8876289965992 459.8678894042969,728.8889306314086 510.1678466796875,728.8889306314086 523.56787109375,715.9896094645228 497.6678161621094,703.9577022854137 " fill="#1f9465"></polygon>
        <polygon stroke="null" id="svg_88" points="720.4677734375,601.7396334842342 751.06787109375,636.4265485455835 725.16796875,587.7566150281345 " fill="#1f9465"></polygon>
        <path stroke="null" id="svg_89" d="m613.46786,548.84215l36.3,-38.4808c1,-1.08397 2.6,-1.08397 3.7,-0.1084l70.1,65.47156l44.6,-117.93553l-126.7,-11.38165l-28,102.43481z" fill="#1f9465"></path>
        <polygon stroke="null" id="svg_90" points="726.867919921875,688.2401816797646 760.767822265625,656.154987260139 720.66796875,610.6283623682175 " fill="#1f9465"></polygon>
        <polygon stroke="null" id="svg_91" points="652.16796875,639.1367692466301 629.06787109375,728.1302121985573 670.867919921875,720.1089624675515 721.66796875,692.5760786450337 714.867919921875,606.9427489416776 " fill="#1f9465"></polygon>
        <polygon stroke="null" id="svg_92" points="645.56787109375,440.87913982720784 768.66796875,451.93552395042207 749.267822265625,331.72364891463803 " fill="#1f9465"></polygon>
        <path stroke="null" id="svg_93" d="m585.96786,534.96738l20.5,18.75262l29.7,-109.047l-83.3,-51.59679l-26.2,62.54485l4.5,99.07451l52.1,-20.37856c0.9,-0.21679 1.9,0 2.7,0.65038z" fill="#79bc90"></path>
        <polygon stroke="null" id="svg_94" points="467.8678894042969,626.9961013473949 486.1678161621094,692.142339068545 525.867919921875,710.5697545492367 525.867919921875,565.9687604728679 509.867919921875,582.7704996893372 " fill="#1f9465"></polygon>
        <polygon stroke="null" id="svg_95" points="523.1678466796875,380.9357569026979 526.06787109375,442.8301859389976 547.867919921875,390.6914436180523 " fill="#79bc90"></polygon>
        <polygon stroke="null" id="svg_96" points="531.267822265625,713.6051496022483 546.56787109375,726.1790357563659 551.1678466796875,634.3671327048723 531.267822265625,633.2831747548553 " fill="#1f9465"></polygon>
        <polygon stroke="null" id="svg_97" points="531.267822265625,561.0911451933935 531.267822265625,627.1043407459147 552.767822265625,627.1043407459147 604.06787109375,559.3565778786433 583.6678466796875,540.6040532111874 " fill="#1f9465"></polygon>
        <polygon stroke="null" id="svg_98" points="556.56787109375,634.6921115612349 551.867919921875,728.8889306314086 623.1678466796875,728.8889306314086 646.267822265625,639.7869876201585 " fill="#79bc90"></polygon>
        <path stroke="null" id="svg_99" d="m353.46786,500.49725c0.3,-0.32519 0.8,-0.65038 1.2,-0.75878l111.2,-28.61671c1,-0.21679 2.1,0.1084 2.8,1.08397l31.9,43.68384l-27.1,-269.474l-79.1,67.85629c0,0 -0.1,0 -0.1,0c-0.3,0.21679 -0.7,0.43359 -1.2,0.54198c-0.1,0 -0.1,0 -0.2,0c0,0 0,0 -0.1,0c-0.1,0 -0.1,0 -0.2,0c-0.1,0 -0.2,-0.1084 -0.4,-0.1084c-0.3,0 -0.7,0 -1,-0.21679l-113.2,-68.50667l17.6,313.37464l57.9,-58.85937z" fill="#79bc90"></path>
        <polygon stroke="null" id="svg_100" points="257.7677917480469,514.4806275166557 279.8678894042969,575.5077077303795 290.2677917480469,564.8848025228508 276.8678894042969,508.30179350771505 " fill="#1f9465"></polygon>
        <polygon stroke="null" id="svg_101" points="550.9678955078125,385.5968608025323 690.867919921875,250.64305338219492 522.267822265625,360.34039293937167 522.9678955078125,374.5403137663161 " fill="#1f9465"></polygon>
        <polygon stroke="null" id="svg_102" points="638.9677734375,439.686779565669 748.4677734375,324.35274788756215 751.867919921875,297.79558261654165 714.06787109375,236.3346324959275 556.267822265625,388.4151254064964 " fill="#79bc90"></polygon>
        <path stroke="null" id="svg_103" d="m506.96786,524.5613l18.4,25.25641l-7.9,-173.10941c0,0 0,0 0,0l-7.8,-171.37506l-31.2,36.31287l28.5,282.91518z" fill="#1f9465"></path>
        <path stroke="null" id="svg_104" d="m433.36786,619.29995c0.2,0 0.5,0 0.7,0l29.7,3.79388l24.4,-25.69l36.7,-38.5892l-59.4,-81.40586l-108.8,28.07473l-61.4,62.65325l0,0l-12.4,12.6824l55.2,53.22274l95.3,-14.74194z" fill="#79bc90"></path>
        <g stroke="null" id="svg_105">
          <path stroke="null" id="svg_106" d="m139.66786,245.22321c-6.2,13.33278 -12.3,26.77397 -18.2,40.32354c-11.8,26.99076 -23.1,54.19831 -33.8,81.73105c-3.9,10.08089 -8,20.27017 -11.8,30.56785l15.4,0c3.4,-8.12975 6.8,-16.1511 10.4,-24.17245c11.5,-26.23198 23.1,-52.46397 34.9,-78.58755c2.1,-4.55266 4.1,-9.10532 6.2,-13.65797l-3.1,-36.20447z" fill="#FFFFFF"></path>
          <path stroke="null" id="svg_107" d="m124.16786,233.84156l-22,-12.6824c-7.3,15.9343 -14.5,31.86861 -21.5,47.91131c-18.2,41.8411 -35.1,84.54937 -47.8,128.77519l18.6,0c14.3,-40.54034 31.8,-79.88831 50.3,-118.36911c7.3,-15.28392 14.8,-30.45945 22.4,-45.63498z" fill="#FFFFFF"></path>
        </g>
        <g stroke="null" id="svg_108">
          <path stroke="null" id="svg_109" d="m355.16786,60.73216c-26.4,28.29152 -50.1,59.83494 -73.6,91.05316l0,21.78772c19.5,-22.76329 38.5,-46.06856 58.5,-68.28987c6.1,-6.72059 12.3,-13.44118 18.6,-19.94498l-3.5,-24.60603z" fill="#FFFFFF"></path>
          <path stroke="null" id="svg_110" d="m281.46786,106.36713c2.4,-2.92671 4.9,-5.74502 7.4,-8.56333c15.5,-17.77705 31.8,-34.79532 48.3,-51.38c4.6,-4.66105 9.3,-9.21371 14,-13.76637l-2.7,-19.1862l-20.3,7.26257c-2.5,2.60152 -4.9,5.31143 -7.4,7.91295c-13.5,14.74194 -26.8,29.91747 -39.4,45.63498l0,32.0854l0.1,0z" fill="#FFFFFF"></path>
        </g>
        <g stroke="null" id="svg_111">
          <path stroke="null" id="svg_112" d="m306.96786,603.90763l13.3,12.7908c3.7,-4.44426 7.3,-8.99692 11,-13.44118c16.5,-20.27017 32.8,-40.75713 49.7,-60.59371c16,-18.86101 32.1,-37.72202 48.9,-55.71586c0.2,-0.21679 0.3,-0.32519 0.5,-0.54198l-46.7,12.03203c-7.7,9.7557 -15.3,19.61979 -22.8,29.59228c-16.3,21.78772 -32.1,44.00903 -47.4,66.66392c-2.3,3.03511 -4.4,6.07021 -6.5,9.21371z" fill="#FFFFFF"></path>
          <path stroke="null" id="svg_113" d="m471.36786,485.32173l-5.9,-8.02135l-13,3.3603c-15.7,19.94498 -30.6,40.64873 -45.2,61.89447c-20.5,29.80907 -41,59.72654 -60.8,90.07759l17.8,-2.70992c35.3,-48.56169 71,-96.79818 107.1,-144.60109z" fill="#FFFFFF"></path>
        </g>
        <g stroke="null" id="svg_114">
          <path stroke="null" id="svg_115" d="m590.66786,409.76928c0.2,-0.21679 0.4,-0.43359 0.6,-0.54198c10.8,-10.29768 21.5,-20.81215 32.1,-31.32662c21.2,-20.92055 42.3,-41.8411 63.9,-62.11126c15.9,-14.95873 32.2,-29.48388 48.5,-44.00903l-13.6,-22.11291c-17.1,16.1511 -33.8,32.73578 -50.2,49.53726c-21.4,21.89612 -42.2,44.33422 -63,66.77232c-10.2,10.94806 -20.4,22.00451 -30.5,33.06097c-0.6,0.65038 -1.2,1.40916 -1.9,2.05954l14.1,8.67173z" fill="#FFFFFF"></path>
          <path stroke="null" id="svg_116" d="m717.96786,317.63215c9.6,-9.43051 19.2,-18.64422 28.9,-27.85793l-8.5,-13.76637c-46.7,45.09299 -90.7,93.65468 -134.4,141.99958l8.9,5.52823c34.9,-35.4457 69.7,-71.10818 105.1,-105.9035z" fill="#FFFFFF"></path>
        </g>
        <g stroke="null" id="svg_117">
          <path stroke="null" id="svg_118" d="m689.06786,551.44367c-22.7,25.7984 -44.3,52.78916 -64.7,80.75548l12.6,0.86717c14,-17.56025 28.4,-34.79532 43.2,-51.59679c6.2,-7.04578 12.5,-13.87477 18.9,-20.81215l-10,-9.21371z" fill="#FFFFFF"></path>
          <path stroke="null" id="svg_119" d="m678.76786,541.68797l-15.9,-14.95873c-12.1,13.65797 -23.9,27.64114 -35.4,42.16629c-13.9,17.56025 -27.3,35.66249 -40.1,54.19831c-1.4,2.05954 -2.8,4.01068 -4.2,6.07021l20.4,1.51755c12.8,-16.47629 25.8,-32.73578 39.3,-48.56169c11.7,-13.76637 23.8,-26.99076 35.9,-40.43194z" fill="#FFFFFF"></path>
        </g>
      </g>
    </g>
  </symbol>
</svg>